<svg width="80" height="81" viewBox="0 0 80 81" fill="none" xmlns="http://www.w3.org/2000/svg">
<rect y="0.558105" width="80" height="80" rx="24" fill="#F3F4F6"/>
<path d="M45.0659 45.6359C41.8094 46.8613 38.1602 46.8636 34.9036 45.6366C33.6766 42.3835 33.6763 38.7349 34.9017 35.4812C38.1575 34.2537 41.8103 34.2535 45.0661 35.4811C46.2926 38.7337 46.2921 42.3832 45.0659 45.6359ZM63.6663 36.5581H49.648L59.5599 26.6515C58.0043 24.4677 56.0838 22.5494 53.8988 20.9946L43.9861 30.9012V16.8914C41.3406 16.4467 38.6274 16.4473 35.9818 16.8914V30.9012L26.0692 20.9946C23.8847 22.5483 21.9636 24.4693 20.4079 26.6515L30.3213 36.5581H16.3031C15.9571 39.2813 15.8447 41.8407 16.3031 44.5583H30.3215L20.4081 54.4648C21.9676 56.6519 23.8808 58.564 26.0692 60.1225L35.9818 50.2152V64.2257C38.6277 64.6688 41.3401 64.669 43.986 64.2257V50.2152L53.8995 60.1225C56.0855 58.5662 58.0026 56.6494 59.5599 54.4648L49.6465 44.5583H63.6663C64.1112 41.9166 64.1112 39.1998 63.6663 36.5581Z" fill="#FF4A00"/>
</svg>
