<svg width="80" height="81" viewBox="0 0 80 81" fill="none" xmlns="http://www.w3.org/2000/svg">
<rect y="0.558105" width="80" height="80" rx="24" fill="#F3F4F6"/>
<path d="M31.2089 36.1019V35.7281C31.2089 34.7805 31.9718 33.9946 32.9551 33.9293L40.1173 33.4536L50.0221 47.9631V35.2285L47.4726 34.8904V34.7129C47.4726 33.7541 48.253 32.963 49.2488 32.9123L55.7657 32.5802V33.5131C55.7657 33.9511 55.4383 34.3257 54.9896 34.4012L53.4213 34.6651V55.2882L51.4532 55.9616C49.8089 56.5241 47.9784 55.9219 47.0371 54.509L37.4213 40.0744V53.8514L40.381 54.4149L40.3398 54.6879C40.2106 55.5434 39.4682 56.1904 38.5701 56.2301L31.2089 56.5561C31.1116 55.6362 31.8046 54.8132 32.7607 54.7133L33.729 54.6121V36.2428L31.2089 36.1019Z" fill="#22272F"/>
<path fill-rule="evenodd" clip-rule="evenodd" d="M48.649 16.5716L19.1379 18.5759C17.3702 18.696 16 20.1097 16 21.8134V50.3673C16 51.9681 16.5539 53.5235 17.5746 54.7883L23.9376 62.6738C24.9664 63.9488 26.5854 64.6508 28.2604 64.5482L61.0144 62.5425C62.6931 62.4397 64 61.1007 64 59.4834V27.0205C64 26.0199 63.4921 25.0823 62.6393 24.5088L52.2707 17.535C51.214 16.8243 49.9354 16.4842 48.649 16.5716ZM20.6013 22.2588C20.1909 21.9565 20.3862 21.3268 20.9018 21.29L48.8475 19.296C49.7379 19.2324 50.6227 19.4764 51.3428 19.9839L56.9499 23.9357C57.1628 24.0857 57.0629 24.4096 56.7994 24.4239L27.2049 26.025C26.3093 26.0735 25.4253 25.8117 24.7132 25.2872L20.6013 22.2588ZM25.8168 31.0445C25.8168 30.088 26.5936 29.298 27.5868 29.2442L58.8765 27.549C59.8445 27.4966 60.6593 28.2371 60.6593 29.1693V57.2788C60.6593 58.2335 59.8854 59.0227 58.8941 59.0788L27.8025 60.8386C26.7253 60.8996 25.8168 60.0761 25.8168 59.0386V31.0445Z" fill="#22272F"/>
</svg>
