<svg width="80" height="81" viewBox="0 0 80 81" fill="none" xmlns="http://www.w3.org/2000/svg">
<rect y="0.558105" width="80" height="80" rx="24" fill="#F3F4F6"/>
<path fill-rule="evenodd" clip-rule="evenodd" d="M40 40.5583C40 35.7718 44.0294 31.8916 49 31.8916C53.9706 31.8916 58 35.7718 58 40.5583C58 45.3447 53.9706 49.2249 49 49.2249C44.0294 49.2249 40 45.3447 40 40.5583Z" fill="#1ABCFE"/>
<path fill-rule="evenodd" clip-rule="evenodd" d="M22 57.8913C22 53.1048 26.0294 49.2246 31 49.2246H40V57.8913C40 62.6777 35.9706 66.5579 31 66.5579C26.0294 66.5579 22 62.6777 22 57.8913Z" fill="#0ACF83"/>
<path fill-rule="evenodd" clip-rule="evenodd" d="M40 14.5581V31.8914H49C53.9706 31.8914 58 28.0112 58 23.2248C58 18.4383 53.9706 14.5581 49 14.5581H40Z" fill="#FF7262"/>
<path fill-rule="evenodd" clip-rule="evenodd" d="M22 23.2248C22 28.0112 26.0294 31.8914 31 31.8914H40V14.5581H31C26.0294 14.5581 22 18.4383 22 23.2248Z" fill="#F24E1E"/>
<path fill-rule="evenodd" clip-rule="evenodd" d="M22 40.5583C22 45.3447 26.0294 49.2249 31 49.2249H40V31.8916H31C26.0294 31.8916 22 35.7718 22 40.5583Z" fill="#A259FF"/>
</svg>
