<svg width="16" height="17" viewBox="0 0 16 17" fill="none" xmlns="http://www.w3.org/2000/svg">
<path d="M8 14.5581C7.60417 14.5581 7.23958 14.4592 6.90625 14.2612C6.58333 14.0737 6.32292 13.8185 6.125 13.4956C5.9375 13.1623 5.84375 12.7977 5.84375 12.4018C5.84375 11.9018 5.95833 11.4852 6.1875 11.1518C6.41667 10.8185 6.77083 10.4279 7.25 9.97999C7.60417 9.65707 7.78125 9.34975 7.78125 9.05809V8.77687H7.5C7.17708 8.77687 6.73437 9.09979 6.17187 9.74563C5.61979 10.3915 4.94791 10.7143 4.15625 10.7143C3.76042 10.7143 3.39583 10.6206 3.0625 10.4331C2.73958 10.2352 2.47917 9.97477 2.28125 9.65185C2.09375 9.31855 2 8.95393 2 8.55811C2 8.16227 2.09375 7.8029 2.28125 7.47998C2.47917 7.14665 2.73958 6.88623 3.0625 6.69873C3.39583 6.50081 3.76042 6.40186 4.15625 6.40186C4.9375 6.40186 5.60416 6.71956 6.15625 7.35498C6.70833 7.9904 7.15625 8.3081 7.5 8.3081H7.78125V8.05811C7.78125 7.76644 7.60417 7.45915 7.25 7.13623L6.89062 6.8081C6.63021 6.56852 6.39063 6.28207 6.17187 5.94873C5.95312 5.60498 5.84375 5.19352 5.84375 4.71436C5.84375 4.31852 5.9375 3.95915 6.125 3.63623C6.32292 3.3029 6.58333 3.04248 6.90625 2.85498C7.23958 2.65706 7.60417 2.55811 8 2.55811C8.39582 2.55811 8.75522 2.65706 9.07814 2.85498C9.41144 3.0529 9.6719 3.31331 9.8594 3.63623C10.0573 3.95915 10.1562 4.31852 10.1562 4.71436C10.1562 5.4956 9.83852 6.16227 9.20312 6.71435C8.56772 7.26644 8.25002 7.71436 8.25002 8.05811V8.3081H8.49998C8.85416 8.3081 9.30206 7.9904 9.84374 7.35498C10.375 6.71956 11.0416 6.40186 11.8438 6.40186C12.2396 6.40186 12.5989 6.50081 12.9219 6.69873C13.2552 6.88623 13.5156 7.14144 13.7031 7.46435C13.9011 7.78727 14 8.15186 14 8.55811C14 8.95393 13.9011 9.31855 13.7031 9.65185C13.5156 9.97477 13.2552 10.2352 12.9219 10.4331C12.5989 10.6206 12.2396 10.7143 11.8438 10.7143C11.3542 10.7143 10.9323 10.5946 10.5781 10.355C10.2344 10.1154 9.84896 9.76645 9.42188 9.30811C9.09896 8.95393 8.79164 8.77687 8.49998 8.77687H8.25002V9.05809C8.25002 9.44353 8.56772 9.89143 9.20312 10.4018C9.83852 10.9123 10.1562 11.5789 10.1562 12.4018C10.1562 12.7977 10.0573 13.1623 9.8594 13.4956C9.6719 13.8185 9.41666 14.0737 9.09374 14.2612C8.77082 14.4592 8.40626 14.5581 8 14.5581Z" fill="#779ACF"/>
</svg>
