<svg width="80" height="81" viewBox="0 0 80 81" fill="none" xmlns="http://www.w3.org/2000/svg">
<rect y="0.558105" width="80" height="80" rx="24" fill="#F3F4F6"/>
<path d="M53.2027 25.7832L40.14 35.6777L26.7785 25.7832V25.7859L26.7946 25.7992V39.6543L39.9893 49.7627L53.2027 40.0447V25.7832Z" fill="#EA4335"/>
<path d="M56.6331 23.3763L53.2026 25.7831V40.0446L63.9973 32.0006V27.155C63.9973 27.155 62.6869 20.2342 56.6331 23.3763Z" fill="#FBBC05"/>
<path d="M53.2026 40.045V58.5424H61.4762C61.4762 58.5424 63.8304 58.3071 64 55.7024V32.001L53.2026 40.045Z" fill="#34A853"/>
<path d="M26.7948 58.5579V39.654L26.7785 39.6406L26.7948 58.5579Z" fill="#C5221F"/>
<path d="M26.7785 25.7861L23.3668 23.3927C17.313 20.2505 16 27.1687 16 27.1687V32.0143L26.7785 39.6411V25.7861Z" fill="#C5221F"/>
<path d="M26.7785 25.7856V39.6407L26.7948 39.654V25.799L26.7785 25.7856Z" fill="#C5221F"/>
<path d="M16 32.0166V55.718C16.1668 58.3254 18.5238 58.558 18.5238 58.558H26.7973L26.7785 39.6407L16 32.0166Z" fill="#4285F4"/>
</svg>
