<svg width="126" height="126" viewBox="0 0 126 126" fill="none" xmlns="http://www.w3.org/2000/svg">
<g clip-path="url(#clip0_6020_570)">
<path d="M107.24 0.493652H18.5773C8.66669 0.493652 0.632568 8.52777 0.632568 18.4384V107.102C0.632568 117.012 8.66669 125.046 18.5773 125.046H107.24C117.151 125.046 125.185 117.012 125.185 107.102V18.4384C125.185 8.52777 117.151 0.493652 107.24 0.493652Z" stroke="#89ACF1" stroke-miterlimit="10"/>
<path d="M101.407 40.4993L80.8581 52.364C90.1995 39.3718 81.8021 20.9037 62.3721 17.9644V40.884C55.4197 27.0418 35.7525 25.4357 23.7223 40.5037L43.5684 51.9613C28.1022 51.0621 16.8772 67.2888 23.9146 85.2424L44.7226 73.2301C35.2112 85.9225 41.7788 106.301 62.3676 107.446V82.4508C68.0718 97.7961 89.6761 102.878 101.21 85.2424L79.5651 72.7469C95.7069 75.476 110.909 59.3074 101.407 40.5037V40.4993Z" fill="url(#paint0_linear_6020_570)"/>
</g>
<defs>
<linearGradient id="paint0_linear_6020_570" x1="104.346" y1="17.9644" x2="-19.3297" y2="100.687" gradientUnits="userSpaceOnUse">
<stop stop-color="#C0D7FF"/>
<stop offset="1" stop-color="#3875EB"/>
</linearGradient>
<clipPath id="clip0_6020_570">
<rect width="125" height="125" fill="white" transform="translate(0.408936 0.27002)"/>
</clipPath>
</defs>
</svg>
