<svg width="126" height="126" viewBox="0 0 126 126" fill="none" xmlns="http://www.w3.org/2000/svg">
<g clip-path="url(#clip0_6020_567)">
<path d="M107.24 0.493652H18.5773C8.66669 0.493652 0.632568 8.52777 0.632568 18.4384V107.102C0.632568 117.012 8.66669 125.046 18.5773 125.046H107.24C117.151 125.046 125.185 117.012 125.185 107.102V18.4384C125.185 8.52777 117.151 0.493652 107.24 0.493652Z" stroke="#89ACF1" stroke-miterlimit="10"/>
<path d="M66.591 97.4783C69.1232 90.4409 73.2078 83.8196 78.8404 78.1557L78.9433 78.0528C84.5849 72.4112 91.1749 68.3176 98.1855 65.7631C102.552 64.1748 107.08 63.1816 111.638 62.7924C107.093 62.5419 102.579 61.6874 98.2257 60.2378C90.9199 57.813 84.0749 53.7015 78.2767 47.9034C72.4831 42.1097 68.3671 35.2557 65.9423 27.9544C64.3854 23.2747 63.5219 18.4071 63.3474 13.5127L63.1595 13.7006C62.824 18.5592 61.8084 23.3821 60.1173 28.0215C57.5716 35.0007 53.487 41.5684 47.8768 47.1965L47.8365 47.2368C42.2307 52.8425 35.681 56.9272 28.7152 59.4817C24.0444 61.1952 19.1903 62.2197 14.3003 62.5598L14.2422 62.6179C19.1277 62.7924 23.9818 63.6559 28.6525 65.2038C35.9628 67.6331 42.8258 71.7446 48.6284 77.5517C54.4355 83.3588 58.5425 90.2128 60.9718 97.5275C62.5242 102.198 63.3877 107.052 63.5622 111.938L63.5935 111.907C63.9022 107.017 64.8999 102.154 66.582 97.4739L66.591 97.4783Z" fill="url(#paint0_linear_6020_567)"/>
</g>
<defs>
<linearGradient id="paint0_linear_6020_567" x1="111.638" y1="13.5127" x2="-27.7757" y2="113.501" gradientUnits="userSpaceOnUse">
<stop stop-color="#C0D7FF"/>
<stop offset="1" stop-color="#3875EB"/>
</linearGradient>
<clipPath id="clip0_6020_567">
<rect width="125" height="125" fill="white" transform="translate(0.408936 0.27002)"/>
</clipPath>
</defs>
</svg>
