<svg width="20" height="21" viewBox="0 0 20 21" fill="none" xmlns="http://www.w3.org/2000/svg">
<path d="M17.0583 1.93664H2.94167C2.78299 1.93444 2.62543 1.96351 2.47798 2.02221C2.33053 2.08091 2.19609 2.16807 2.08234 2.27873C1.96858 2.38939 1.87774 2.52138 1.815 2.66715C1.75226 2.81292 1.71885 2.96962 1.71667 3.12831V17.4116C1.71885 17.5703 1.75226 17.727 1.815 17.8728C1.87774 18.0186 1.96858 18.1506 2.08234 18.2612C2.19609 18.3719 2.33053 18.459 2.47798 18.5177C2.62543 18.5764 2.78299 18.6055 2.94167 18.6033H17.0583C17.217 18.6055 17.3746 18.5764 17.522 18.5177C17.6695 18.459 17.8039 18.3719 17.9177 18.2612C18.0314 18.1506 18.1223 18.0186 18.185 17.8728C18.2478 17.727 18.2812 17.5703 18.2833 17.4116V3.12831C18.2812 2.96962 18.2478 2.81292 18.185 2.66715C18.1223 2.52138 18.0314 2.38939 17.9177 2.27873C17.8039 2.16807 17.6695 2.08091 17.522 2.02221C17.3746 1.96351 17.217 1.93444 17.0583 1.93664V1.93664ZM6.74167 15.8866H4.24167V8.38664H6.74167V15.8866ZM5.49167 7.33664C5.14689 7.33664 4.81623 7.19968 4.57244 6.95588C4.32864 6.71208 4.19167 6.38142 4.19167 6.03664C4.19167 5.69186 4.32864 5.3612 4.57244 5.1174C4.81623 4.8736 5.14689 4.73664 5.49167 4.73664C5.67475 4.71588 5.86016 4.73402 6.03574 4.78988C6.21132 4.84573 6.37312 4.93805 6.51056 5.06077C6.64799 5.1835 6.75795 5.33387 6.83323 5.50204C6.90852 5.67021 6.94744 5.85239 6.94744 6.03664C6.94744 6.22089 6.90852 6.40307 6.83323 6.57124C6.75795 6.73941 6.64799 6.88978 6.51056 7.01251C6.37312 7.13523 6.21132 7.22755 6.03574 7.2834C5.86016 7.33926 5.67475 7.3574 5.49167 7.33664V7.33664ZM15.7583 15.8866H13.2583V11.8616C13.2583 10.8533 12.9 10.195 11.9917 10.195C11.7106 10.197 11.4368 10.2852 11.2074 10.4476C10.9779 10.61 10.8037 10.8389 10.7083 11.1033C10.6431 11.2992 10.6149 11.5055 10.625 11.7116V15.8783H8.12501C8.12501 15.8783 8.12501 9.06164 8.12501 8.37831H10.625V9.43664C10.8521 9.04256 11.1824 8.71791 11.5804 8.49764C11.9783 8.27738 12.4288 8.16985 12.8833 8.18664C14.55 8.18664 15.7583 9.26164 15.7583 11.57V15.8866Z" fill="#0D0D0D"/>
</svg>
