<svg width="20" height="21" viewBox="0 0 20 21" fill="none" xmlns="http://www.w3.org/2000/svg">
<path d="M19.1666 8.36192C19.2078 7.16913 18.947 5.98526 18.4083 4.92025C18.0428 4.48325 17.5355 4.18834 16.9749 4.08692C14.6562 3.87652 12.3279 3.79029 9.99994 3.82858C7.68048 3.78855 5.36053 3.872 3.04994 4.07858C2.59312 4.16168 2.17037 4.37595 1.83327 4.69525C1.08327 5.38692 0.999941 6.57025 0.916608 7.57025C0.795701 9.36822 0.795701 11.1723 0.916608 12.9702C0.940716 13.5331 1.02452 14.0918 1.16661 14.6369C1.26709 15.0578 1.47038 15.4472 1.75827 15.7703C2.09766 16.1065 2.53026 16.3329 2.99994 16.4202C4.79654 16.642 6.60679 16.7339 8.41661 16.6952C11.3333 16.7369 13.8916 16.6953 16.9166 16.4619C17.3978 16.38 17.8426 16.1532 18.1916 15.8119C18.4249 15.5785 18.5992 15.2928 18.6999 14.9786C18.998 14.0641 19.1443 13.107 19.1333 12.1452C19.1666 11.6786 19.1666 8.86192 19.1666 8.36192ZM8.11661 12.6453V7.48692L13.0499 10.0786C11.6666 10.8453 9.84161 11.7119 8.11661 12.6453Z" fill="#0D0D0D"/>
</svg>
