<svg width="20" height="20" viewBox="0 0 20 20" fill="none" xmlns="http://www.w3.org/2000/svg">
<path fill-rule="evenodd" clip-rule="evenodd" d="M17.5842 6.66961C17.5369 6.66663 17.4855 6.66665 17.4322 6.66667L17.4189 6.66667H15.3285C13.6054 6.66667 12.1311 8.02297 12.1311 9.79167C12.1311 11.5604 13.6054 12.9167 15.3285 12.9167H17.4189L17.4322 12.9167C17.4855 12.9167 17.5369 12.9167 17.5842 12.9137C18.2841 12.8695 18.903 12.3218 18.9551 11.5568C18.9585 11.5067 18.9584 11.4526 18.9584 11.4025L18.9584 11.3889V8.19445L18.9584 8.18085C18.9584 8.13073 18.9585 8.07666 18.9551 8.0265C18.903 7.2615 18.2841 6.71381 17.5842 6.66961ZM15.1431 10.625C15.5867 10.625 15.9464 10.2519 15.9464 9.79167C15.9464 9.33143 15.5867 8.95833 15.1431 8.95833C14.6995 8.95833 14.3399 9.33143 14.3399 9.79167C14.3399 10.2519 14.6995 10.625 15.1431 10.625Z" fill="url(#paint0_linear_201_116)"/>
<path fill-rule="evenodd" clip-rule="evenodd" d="M17.4317 14.1667C17.5559 14.1635 17.65 14.2785 17.6163 14.3982C17.449 14.9919 17.1834 15.4979 16.7574 15.924C16.1337 16.5476 15.343 16.8244 14.3659 16.9557C13.4166 17.0834 12.2036 17.0833 10.6721 17.0833H8.91141C7.37994 17.0833 6.16691 17.0834 5.21756 16.9557C4.24054 16.8244 3.44975 16.5476 2.82612 15.924C2.20248 15.3003 1.92572 14.5095 1.79436 13.5325C1.66672 12.5832 1.66674 11.3701 1.66675 9.83868V9.74465C1.66674 8.21319 1.66672 7.00016 1.79436 6.05082C1.92572 5.0738 2.20248 4.28301 2.82612 3.65937C3.44975 3.03573 4.24054 2.75897 5.21756 2.62761C6.16691 2.49998 7.37993 2.49999 8.9114 2.5L10.6721 2.5C12.2036 2.49999 13.4166 2.49998 14.3659 2.62761C15.343 2.75897 16.1337 3.03573 16.7574 3.65937C17.1834 4.08544 17.449 4.59145 17.6162 5.18515C17.65 5.3048 17.5559 5.41989 17.4317 5.41667L15.3284 5.41667C12.9646 5.41667 10.881 7.28409 10.881 9.79167C10.881 12.2993 12.9646 14.1667 15.3284 14.1667L17.4317 14.1667ZM4.79175 5.83333C4.44657 5.83333 4.16675 6.11316 4.16675 6.45833C4.16675 6.80351 4.44657 7.08333 4.79175 7.08333H8.12508C8.47026 7.08333 8.75008 6.80351 8.75008 6.45833C8.75008 6.11316 8.47026 5.83333 8.12508 5.83333H4.79175Z" fill="url(#paint1_linear_201_116)"/>
<defs>
<linearGradient id="paint0_linear_201_116" x1="1.66675" y1="2.5" x2="19.819" y2="15.9193" gradientUnits="userSpaceOnUse">
<stop stop-color="#3875EB"/>
<stop offset="1" stop-color="#C0D7FF"/>
</linearGradient>
<linearGradient id="paint1_linear_201_116" x1="1.66675" y1="2.5" x2="19.819" y2="15.9193" gradientUnits="userSpaceOnUse">
<stop stop-color="#3875EB"/>
<stop offset="1" stop-color="#C0D7FF"/>
</linearGradient>
</defs>
</svg>
