<svg width="20" height="20" viewBox="0 0 20 20" fill="none" xmlns="http://www.w3.org/2000/svg">
<path fill-rule="evenodd" clip-rule="evenodd" d="M8.32926 3.33325H11.6709C14.8214 3.33325 16.3967 3.33325 17.3754 4.30956C18.0493 4.98178 18.2592 5.93608 18.3246 7.49114C18.3376 7.79954 18.344 7.95373 18.2865 8.05661C18.2289 8.15948 17.999 8.28786 17.5392 8.54463C17.0285 8.8298 16.6834 9.37465 16.6834 9.99992C16.6834 10.6252 17.0285 11.17 17.5392 11.4552C17.999 11.712 18.2289 11.8404 18.2865 11.9432C18.344 12.0461 18.3376 12.2003 18.3246 12.5087C18.2592 14.0638 18.0493 15.0181 17.3754 15.6903C16.3967 16.6666 14.8214 16.6666 11.6709 16.6666H8.32926C5.17874 16.6666 3.60347 16.6666 2.62473 15.6903C1.95084 15.0181 1.74094 14.0638 1.67556 12.5087C1.6626 12.2003 1.65611 12.0461 1.7137 11.9432C1.77129 11.8404 2.00119 11.712 2.46098 11.4552C2.97163 11.17 3.31681 10.6252 3.31681 9.99992C3.31681 9.37465 2.97163 8.8298 2.46098 8.54463C2.00119 8.28786 1.77129 8.15948 1.7137 8.05661C1.65611 7.95373 1.6626 7.79954 1.67556 7.49114C1.74094 5.93608 1.95084 4.98178 2.62473 4.30956C3.60347 3.33325 5.17874 3.33325 8.32926 3.33325ZM12.9566 7.05798C13.2013 7.30205 13.2013 7.69778 12.9566 7.94186L7.94415 12.9419C7.69947 13.1859 7.30275 13.1859 7.05807 12.9419C6.81338 12.6978 6.81338 12.3021 7.05807 12.058L12.0705 7.05798C12.3152 6.8139 12.7119 6.8139 12.9566 7.05798ZM12.0959 12.9166C12.5572 12.9166 12.9313 12.5435 12.9313 12.0833C12.9313 11.623 12.5572 11.2499 12.0959 11.2499C11.6345 11.2499 11.2605 11.623 11.2605 12.0833C11.2605 12.5435 11.6345 12.9166 12.0959 12.9166ZM7.91882 8.74992C8.3802 8.74992 8.75423 8.37682 8.75423 7.91658C8.75423 7.45635 8.3802 7.08325 7.91882 7.08325C7.45743 7.08325 7.08341 7.45635 7.08341 7.91658C7.08341 8.37682 7.45743 8.74992 7.91882 8.74992Z" fill="url(#paint0_linear_201_206)"/>
<defs>
<linearGradient id="paint0_linear_201_206" x1="1.66675" y1="3.33325" x2="18.5003" y2="16.4524" gradientUnits="userSpaceOnUse">
<stop stop-color="#3875EB"/>
<stop offset="1" stop-color="#C0D7FF"/>
</linearGradient>
</defs>
</svg>
