<svg width="20" height="20" viewBox="0 0 20 20" fill="none" xmlns="http://www.w3.org/2000/svg">
<path fill-rule="evenodd" clip-rule="evenodd" d="M9.99992 1.66675C6.31802 1.66675 3.33325 5.00223 3.33325 8.75008C3.33325 12.4686 5.46102 16.5104 8.78081 18.0621C9.5547 18.4238 10.4451 18.4238 11.219 18.0621C14.5388 16.5104 16.6666 12.4686 16.6666 8.75008C16.6666 5.00223 13.6818 1.66675 9.99992 1.66675ZM9.99992 10.0001C10.9204 10.0001 11.6666 9.25389 11.6666 8.33341C11.6666 7.41294 10.9204 6.66675 9.99992 6.66675C9.07944 6.66675 8.33325 7.41294 8.33325 8.33341C8.33325 9.25389 9.07944 10.0001 9.99992 10.0001Z" fill="url(#paint0_linear_201_105)"/>
<defs>
<linearGradient id="paint0_linear_201_105" x1="3.33325" y1="1.66675" x2="20.6672" y2="10.3126" gradientUnits="userSpaceOnUse">
<stop stop-color="#3875EB"/>
<stop offset="1" stop-color="#C0D7FF"/>
</linearGradient>
</defs>
</svg>
