<svg width="24" height="25" viewBox="0 0 24 25" fill="none" xmlns="http://www.w3.org/2000/svg">
<path d="M3.414 14.2779C2.5 14.4999 2 15.6919 2 15.6919C2 15.6919 5.398 16.1259 6.949 17.8129C8.5 19.4999 9.071 22.7629 9.071 22.7629C9.071 22.7629 10.47 23.1979 10.485 21.3489C10.5 19.4999 9.778 17.8129 9.778 17.8129L13.091 14.4999L16.701 22.2039C16.701 22.2039 18.08 22.7299 18.04 20.8649C18 18.9999 16.85 10.7419 16.85 10.7419L19.678 7.91294C19.869 7.72845 20.0214 7.50776 20.1262 7.26375C20.231 7.01974 20.2862 6.7573 20.2885 6.49174C20.2908 6.22619 20.2402 5.96283 20.1396 5.71703C20.0391 5.47124 19.8906 5.24794 19.7028 5.06015C19.515 4.87237 19.2917 4.72386 19.0459 4.6233C18.8001 4.52274 18.5368 4.47213 18.2712 4.47444C18.0056 4.47675 17.7432 4.53192 17.4992 4.63674C17.2552 4.74156 17.0345 4.89392 16.85 5.08494L13.947 7.98794C13.947 7.98794 6.148 6.59394 3.824 6.79694C1.5 6.99994 2.559 8.06294 2.559 8.06294L10.203 11.7329L6.95 14.9859C6.95 14.9859 4.328 14.0559 3.414 14.2779Z" fill="white"/>
</svg>
