<svg width="50" height="50" viewBox="0 0 50 50" fill="none" xmlns="http://www.w3.org/2000/svg">
<path fill-rule="evenodd" clip-rule="evenodd" d="M36.178 10.1181C33.5131 7.79901 29.4728 8.07934 27.1537 10.7442L20.3178 18.5994C21.5617 20.7104 22.6925 22.2267 23.9804 23.4343C25.9578 21.8097 28.4907 20.8332 31.2501 20.8332C32.5006 20.8332 33.7061 21.0339 34.8348 21.4054L36.8042 19.1425C39.1233 16.4776 38.8429 12.4372 36.178 10.1181ZM9.30559 28.08L25.5821 9.3766C28.6565 5.84374 34.0128 5.47212 37.5457 8.54656C41.0785 11.621 41.4502 16.9773 38.3757 20.5101L35.4486 23.8737L34.7601 23.5955C33.6773 23.158 32.4932 22.9166 31.2501 22.9166C28.661 22.9166 26.3186 23.9648 24.621 25.6624C22.9233 27.3601 21.8751 29.7024 21.8751 32.2916C21.8751 33.9965 22.3292 35.5921 23.1224 36.9675L23.4937 37.6112L23.0059 38.1718C21.426 39.9872 19.3512 41.4161 17.0785 41.9127C14.7627 42.4186 12.3106 41.9364 10.1356 40.0436C6.60277 36.9692 6.23115 31.6129 9.30559 28.08Z" fill="url(#paint0_linear_200_374)"/>
<path fill-rule="evenodd" clip-rule="evenodd" d="M34.2593 11.6889C34.403 11.1318 34.0679 10.5637 33.5109 10.42C30.2005 9.56596 28.1808 11.8896 27.3753 12.8164C27.363 12.8305 27.351 12.8444 27.3392 12.8579C26.9616 13.2918 27.0072 13.9498 27.4412 14.3275C27.8752 14.7051 28.5331 14.6595 28.9108 14.2255C29.7583 13.2517 30.9831 11.9194 32.9904 12.4373C33.5475 12.581 34.1156 12.2459 34.2593 11.6889Z" fill="url(#paint1_linear_200_374)"/>
<path fill-rule="evenodd" clip-rule="evenodd" d="M31.25 22.9166C26.0723 22.9166 21.875 27.1139 21.875 32.2916C21.875 37.4693 26.0723 41.6666 31.25 41.6666C36.4276 41.6666 40.625 37.4693 40.625 32.2916C40.625 27.1139 36.4276 22.9166 31.25 22.9166ZM19.7916 32.2916C19.7916 25.9633 24.9217 20.8333 31.25 20.8333C37.5782 20.8333 42.7083 25.9633 42.7083 32.2916C42.7083 38.6198 37.5782 43.7499 31.25 43.7499C24.9217 43.7499 19.7916 38.6198 19.7916 32.2916Z" fill="url(#paint2_linear_200_374)"/>
<path fill-rule="evenodd" clip-rule="evenodd" d="M23.2006 34.4486C23.0517 33.8929 23.3815 33.3217 23.9372 33.1728L38.0236 29.3983C38.5793 29.2494 39.1505 29.5792 39.2994 30.1349C39.4483 30.6906 39.1185 31.2618 38.5628 31.4107L24.4764 35.1851C23.9207 35.334 23.3495 35.0042 23.2006 34.4486Z" fill="url(#paint3_linear_200_374)"/>
<defs>
<linearGradient id="paint0_linear_200_374" x1="7.22241" y1="6.46338" x2="47.5467" y2="29.911" gradientUnits="userSpaceOnUse">
<stop stop-color="#3875EB"/>
<stop offset="1" stop-color="#C0D7FF"/>
</linearGradient>
<linearGradient id="paint1_linear_200_374" x1="34.7206" y1="11.3267" x2="28.2275" y2="9.08662" gradientUnits="userSpaceOnUse">
<stop stop-color="#3875EB"/>
<stop offset="1" stop-color="#C0D7FF"/>
</linearGradient>
<linearGradient id="paint2_linear_200_374" x1="19.7916" y1="20.8333" x2="46.5822" y2="37.5365" gradientUnits="userSpaceOnUse">
<stop stop-color="#3875EB"/>
<stop offset="1" stop-color="#C0D7FF"/>
</linearGradient>
<linearGradient id="paint3_linear_200_374" x1="22.931" y1="33.4424" x2="25.2908" y2="38.2093" gradientUnits="userSpaceOnUse">
<stop stop-color="#3875EB"/>
<stop offset="1" stop-color="#C0D7FF"/>
</linearGradient>
</defs>
</svg>
