<svg width="80" height="81" viewBox="0 0 80 81" fill="none" xmlns="http://www.w3.org/2000/svg">
<rect y="0.558105" width="80" height="80" rx="24" fill="#F3F4F6"/>
<path d="M31.2134 25.1406C31.2134 25.6978 31.1688 26.6264 30.6333 27.23C30.0532 27.7871 29.1607 27.8336 28.6253 27.8336C25.6129 27.8336 21.4342 27.0656 18.585 28.2514C22.9334 20.3359 31.3572 15.076 31.3027 15.5296C30.9013 18.6618 31.2134 21.9902 31.2134 25.1406ZM40.2274 61.0774C40.2274 57.2237 43.2618 54.0665 47.0101 54.0665C48.1257 54.0665 49.0182 54.9951 49.0182 56.1558C49.0182 56.9451 48.6166 57.5952 47.9918 57.9666C47.3115 58.3914 46.3691 58.1932 45.7607 58.7559C45.3144 59.1273 44.9575 59.7309 44.9575 60.3809C44.9575 61.0774 45.2252 61.7274 45.6714 62.1917C46.4747 63.0275 47.5456 63.4918 48.7058 63.4918C51.7402 63.4918 54.1945 60.9381 54.1945 57.7809C54.1945 54.9486 52.365 52.4414 49.9553 51.3271C46.2983 49.4246 40.7031 50.5073 40.272 44.5483C39.6013 47.7001 38.1217 53.3236 34.114 53.3236C22.0073 54.0719 17.6436 44.1232 16.8 33.5909C16.8 31.3158 18.1388 29.7836 19.8344 29.5515C22.8688 29.5515 25.9032 29.5515 28.9376 29.5515C30.4995 29.5515 31.3919 29.1336 31.972 28.5764C32.7306 27.8336 32.9091 26.7657 32.9091 25.5121C32.9091 22.2465 32.9091 17.2248 32.9091 15.7153C32.9091 13.7441 34.6048 12.5581 36.7914 12.5581C38.0795 12.5581 39.2883 12.604 40.5397 12.9295C43.2618 13.626 43.8419 16.5047 43.8419 16.5047C43.8419 16.5047 48.9736 17.4333 51.5617 17.8975C54.016 18.3618 60.0848 18.7797 61.245 25.1406C63.9671 40.2768 62.316 54.9486 62.1821 54.9486C60.2633 69.2491 48.8397 68.5526 48.8397 68.5526C44.6872 68.5526 40.2274 65.6776 40.2274 61.0774ZM53.6144 36.4231C52.1418 36.2838 50.8924 36.8874 50.4461 38.0481C49.8138 39.693 56.3364 41.0608 56.3364 38.791C56.1579 37.491 55.087 36.6088 53.6144 36.4231Z" fill="#00A82D"/>
</svg>
