<svg width="33" height="32" viewBox="0 0 33 32" fill="none" xmlns="http://www.w3.org/2000/svg">
<rect x="1.38184" y="0.5" width="31" height="31" rx="4.5" stroke="#89ACF1"/>
<path d="M6.88184 17.0121H12.3869C12.5668 20.3203 13.6232 23.3934 15.3262 26C10.8397 25.2978 7.33485 21.607 6.88184 17.0121ZM6.88184 14.988C7.33485 10.393 10.8397 6.7021 15.3262 6C13.6232 8.60658 12.5668 11.6797 12.3869 14.988H6.88184ZM26.8818 14.988H21.3767C21.1968 11.6797 20.1405 8.60658 18.4375 6C22.924 6.7021 26.4288 10.393 26.8818 14.988ZM26.8818 17.0121C26.4288 21.607 22.924 25.2978 18.4375 26C20.1405 23.3934 21.1968 20.3203 21.3767 17.0121H26.8818ZM14.4003 17.0121H19.3633C19.1909 19.8284 18.3035 22.45 16.8818 24.6951C15.4601 22.45 14.5728 19.8284 14.4003 17.0121ZM14.4003 14.988C14.5728 12.1716 15.4601 9.54997 16.8818 7.30493C18.3035 9.54997 19.1909 12.1716 19.3633 14.988H14.4003Z" fill="url(#paint0_linear_6020_200)"/>
<defs>
<linearGradient id="paint0_linear_6020_200" x1="26.8818" y1="6" x2="-1.54133" y2="26.6005" gradientUnits="userSpaceOnUse">
<stop stop-color="#C0D7FF"/>
<stop offset="1" stop-color="#3875EB"/>
</linearGradient>
</defs>
</svg>
