<svg width="80" height="81" viewBox="0 0 80 81" fill="none" xmlns="http://www.w3.org/2000/svg">
<rect y="0.558105" width="80" height="80" rx="24" fill="#F3F4F6"/>
<path d="M60.8001 38.5577C63.5613 38.5577 65.7996 36.3193 65.7996 33.5581V33.5581C65.7996 30.797 63.5611 28.5586 60.7999 28.5586V28.5586C58.0385 28.5586 55.7997 30.7972 55.7997 33.5586V38.5577H60.8001ZM46.7997 38.5577C49.5611 38.5577 51.7997 36.3191 51.7997 33.5577V19.5586C51.7997 16.7972 49.5611 14.5586 46.7997 14.5586V14.5586C44.0383 14.5586 41.7997 16.7972 41.7997 19.5586V33.5577C41.7997 36.3191 44.0383 38.5577 46.7997 38.5577V38.5577Z" fill="#2EB67D"/>
<path d="M18.7998 42.5585C16.0386 42.5585 13.8002 44.7969 13.8002 47.5581V47.5581C13.8002 50.3193 16.0388 52.5576 18.8 52.5576V52.5576C21.5614 52.5576 23.8002 50.3191 23.8002 47.5576V42.5585H18.7998ZM32.8002 42.5585C30.0388 42.5585 27.8002 44.7971 27.8002 47.5585V61.5576C27.8002 64.319 30.0388 66.5576 32.8002 66.5576V66.5576C35.5616 66.5576 37.8002 64.319 37.8002 61.5576V47.5585C37.8002 44.7971 35.5616 42.5585 32.8002 42.5585V42.5585Z" fill="#E01E5A"/>
<path d="M41.8008 61.5585C41.8008 64.3197 44.0392 66.5581 46.8004 66.5581V66.5581C49.5616 66.5581 51.7999 64.3195 51.7999 61.5583V61.5583C51.7999 58.7969 49.5614 56.5581 46.8 56.5581L41.8008 56.5581L41.8008 61.5585ZM41.8008 47.5581C41.8008 50.3195 44.0394 52.5581 46.8008 52.5581L60.7999 52.5581C63.5613 52.5581 65.7999 50.3195 65.7999 47.5581V47.5581C65.7999 44.7967 63.5614 42.5581 60.7999 42.5581L46.8008 42.5581C44.0394 42.5581 41.8008 44.7967 41.8008 47.5581V47.5581Z" fill="#ECB22E"/>
<path d="M37.799 19.5577C37.799 16.7965 35.5607 14.5581 32.7995 14.5581V14.5581C30.0383 14.5581 27.7999 16.7967 27.7999 19.5579V19.5579C27.7999 22.3193 30.0385 24.5581 32.7999 24.5581L37.799 24.5581L37.799 19.5577ZM37.799 33.5581C37.799 30.7967 35.5605 28.5581 32.799 28.5581L18.7999 28.5581C16.0385 28.5581 13.7999 30.7967 13.7999 33.5581V33.5581C13.7999 36.3195 16.0385 38.5581 18.7999 38.5581L32.799 38.5581C35.5605 38.5581 37.799 36.3195 37.799 33.5581V33.5581Z" fill="#36C5F0"/>
</svg>
