<svg width="25" height="25" viewBox="0 0 25 25" fill="none" xmlns="http://www.w3.org/2000/svg">
<g clip-path="url(#clip0_6020_274)">
<path d="M21.3663 0.0446777H3.63368C1.65156 0.0446777 0.0447388 1.6515 0.0447388 3.63362V21.3663C0.0447388 23.3484 1.65156 24.9552 3.63368 24.9552H21.3663C23.3484 24.9552 24.9553 23.3484 24.9553 21.3663V3.63362C24.9553 1.6515 23.3484 0.0446777 21.3663 0.0446777Z" stroke="#89ACF1" stroke-miterlimit="10"/>
<path d="M13.2364 19.4416C13.7429 18.0341 14.5598 16.7098 15.6863 15.577L15.7069 15.5565C16.8352 14.4281 18.1532 13.6094 19.5553 13.0985C20.4286 12.7809 21.3341 12.5822 22.2459 12.5044C21.3368 12.4543 20.434 12.2834 19.5634 11.9935C18.1022 11.5085 16.7332 10.6862 15.5736 9.52657C14.4148 8.36784 13.5916 6.99704 13.1067 5.53677C12.7953 4.60084 12.6226 3.62732 12.5877 2.64844L12.5501 2.68602C12.483 3.65774 12.2799 4.62231 11.9417 5.55019C11.4326 6.94604 10.6156 8.25957 9.49358 9.38519L9.48553 9.39325C8.36437 10.5144 7.05442 11.3313 5.66126 11.8422C4.72711 12.1849 3.75628 12.3898 2.77829 12.4579L2.76666 12.4695C3.74376 12.5044 4.71459 12.6771 5.64873 12.9867C7.11079 13.4725 8.48338 14.2948 9.6439 15.4562C10.8053 16.6177 11.6267 17.9885 12.1126 19.4514C12.4231 20.3856 12.5958 21.3564 12.6307 22.3335L12.6369 22.3272C12.6987 21.3492 12.8982 20.3766 13.2346 19.4407L13.2364 19.4416Z" fill="url(#paint0_linear_6020_274)"/>
</g>
<defs>
<linearGradient id="paint0_linear_6020_274" x1="22.2459" y1="2.64844" x2="-5.63692" y2="22.646" gradientUnits="userSpaceOnUse">
<stop stop-color="#C0D7FF"/>
<stop offset="1" stop-color="#3875EB"/>
</linearGradient>
<clipPath id="clip0_6020_274">
<rect width="25" height="25" fill="white"/>
</clipPath>
</defs>
</svg>
