<svg width="613" height="613" viewBox="0 0 613 613" fill="none" xmlns="http://www.w3.org/2000/svg">
<g opacity="0.1" clip-path="url(#clip0_6020_18)" filter="url(#filter0_f_6020_18)">
<path d="M464.321 84.7964H148.68C113.398 84.7964 84.7964 113.398 84.7964 148.68V464.321C84.7964 499.602 113.398 528.204 148.68 528.204H464.321C499.602 528.204 528.204 499.602 528.204 464.321V148.68C528.204 113.398 499.602 84.7964 464.321 84.7964Z" stroke="#89ACF1" stroke-miterlimit="10"/>
<path d="M467.363 219.427V309.112C384.08 308.3 316.215 243.047 311.278 160.8V145.637H396.424C396.408 146.052 396.408 146.466 396.408 146.88C396.408 186.426 428.023 218.583 467.363 219.427Z" fill="url(#paint0_linear_6020_18)"/>
<path d="M298.537 151.992C298.537 237.552 230.544 307.201 145.637 309.892V220.112C183.337 217.5 213.104 186.092 213.104 147.724C213.104 147.023 213.088 146.338 213.072 145.637H298.393C298.489 147.74 298.537 149.858 298.537 151.992Z" fill="url(#paint1_linear_6020_18)"/>
<path d="M297.454 467.363H212.021C207.785 433.39 180.072 406.713 145.637 404.085V322.825C225.846 325.596 290.844 388.174 297.454 467.363Z" fill="url(#paint2_linear_6020_18)"/>
<path d="M467.363 323.271V404.435C431.399 405.359 401.966 432.435 397.348 467.363H311.883C318.859 387.234 385.657 324.227 467.363 323.271Z" fill="url(#paint3_linear_6020_18)"/>
</g>
<defs>
<filter id="filter0_f_6020_18" x="0" y="0" width="613" height="613" filterUnits="userSpaceOnUse" color-interpolation-filters="sRGB">
<feFlood flood-opacity="0" result="BackgroundImageFix"/>
<feBlend mode="normal" in="SourceGraphic" in2="BackgroundImageFix" result="shape"/>
<feGaussianBlur stdDeviation="42" result="effect1_foregroundBlur_6020_18"/>
</filter>
<linearGradient id="paint0_linear_6020_18" x1="467.363" y1="145.637" x2="238.579" y2="303.959" gradientUnits="userSpaceOnUse">
<stop stop-color="#C0D7FF"/>
<stop offset="1" stop-color="#3875EB"/>
</linearGradient>
<linearGradient id="paint1_linear_6020_18" x1="298.537" y1="145.637" x2="70.7715" y2="299.304" gradientUnits="userSpaceOnUse">
<stop stop-color="#C0D7FF"/>
<stop offset="1" stop-color="#3875EB"/>
</linearGradient>
<linearGradient id="paint2_linear_6020_18" x1="297.454" y1="322.825" x2="89.1075" y2="481.434" gradientUnits="userSpaceOnUse">
<stop stop-color="#C0D7FF"/>
<stop offset="1" stop-color="#3875EB"/>
</linearGradient>
<linearGradient id="paint3_linear_6020_18" x1="467.363" y1="323.271" x2="258.236" y2="486.821" gradientUnits="userSpaceOnUse">
<stop stop-color="#C0D7FF"/>
<stop offset="1" stop-color="#3875EB"/>
</linearGradient>
<clipPath id="clip0_6020_18">
<rect width="445" height="445" fill="white" transform="translate(84 84)"/>
</clipPath>
</defs>
</svg>
