<svg width="126" height="126" viewBox="0 0 126 126" fill="none" xmlns="http://www.w3.org/2000/svg">
<g clip-path="url(#clip0_6020_592)">
<path d="M107.24 0.493652H18.5773C8.66669 0.493652 0.632568 8.52777 0.632568 18.4384V107.102C0.632568 117.012 8.66669 125.046 18.5773 125.046H107.24C117.151 125.046 125.185 117.012 125.185 107.102V18.4384C125.185 8.52777 117.151 0.493652 107.24 0.493652Z" stroke="#89ACF1" stroke-miterlimit="10"/>
<path d="M107.648 62.6044V62.6268H93.6488V62.2689C93.6488 45.6306 80.1601 32.1418 63.5262 32.1418C63.3473 32.1418 63.1683 32.1418 62.9894 32.1463V18.0312C87.6046 18.076 107.558 37.9981 107.648 62.6044Z" fill="url(#paint0_linear_6020_592)"/>
<path d="M107.639 62.0498C107.639 61.7725 107.625 61.4995 107.621 61.2222C107.63 61.4995 107.634 61.7725 107.639 62.0498Z" fill="url(#paint1_linear_6020_592)"/>
<path d="M107.612 60.9982C107.603 60.6627 107.576 60.3316 107.558 59.9961C107.558 60.0453 107.567 60.09 107.567 60.1393C107.589 60.4256 107.603 60.7119 107.612 60.9982Z" fill="url(#paint2_linear_6020_592)"/>
<path d="M107.428 58.3586C107.428 58.3586 107.428 58.3497 107.428 58.3452C107.437 58.4615 107.455 58.5823 107.464 58.6987C107.46 58.6271 107.451 58.56 107.442 58.4929C107.437 58.4481 107.433 58.4034 107.428 58.3586Z" fill="url(#paint3_linear_6020_592)"/>
<path d="M107.428 58.3453C107.41 58.1395 107.384 57.9381 107.366 57.7368C107.379 57.8263 107.388 57.9113 107.402 58.0008C107.415 58.1171 107.424 58.2289 107.433 58.3453H107.428Z" fill="url(#paint4_linear_6020_592)"/>
<path d="M107.469 58.7703C107.469 58.7435 107.464 58.7211 107.464 58.6987C107.478 58.7927 107.487 58.8866 107.491 58.9806C107.496 59.0387 107.5 59.0924 107.5 59.1506C107.491 59.0253 107.482 58.8956 107.469 58.7703Z" fill="url(#paint5_linear_6020_592)"/>
<path d="M107.115 55.854C107.111 55.8224 107.106 55.7908 107.102 55.7593C107.102 55.7818 107.111 55.8044 107.111 55.8224C107.111 55.8314 107.111 55.8405 107.111 55.854H107.115Z" fill="url(#paint6_linear_6020_592)"/>
<path d="M107.115 55.8669C107.115 55.8669 107.115 55.858 107.115 55.8535C107.16 56.1577 107.214 56.462 107.249 56.7707V56.7886C107.205 56.4799 107.164 56.1756 107.115 55.8669Z" fill="url(#paint7_linear_6020_592)"/>
<path d="M107.648 62.6046C107.648 62.4167 107.643 62.2332 107.639 62.0498C107.639 62.1795 107.648 62.3048 107.648 62.4346V62.6046Z" fill="url(#paint8_linear_6020_592)"/>
<path d="M107.648 107.366V107.509H93.6443C93.6488 107.406 93.6488 107.303 93.6488 107.2C93.6488 103.581 93.0091 100.109 91.8369 96.8923C91.8101 96.8073 91.7787 96.7223 91.743 96.6373C90.0518 92.1098 87.2959 88.0967 83.7839 84.9024C83.7213 84.8442 83.6587 84.7905 83.596 84.7368C78.2677 79.9722 71.2347 77.0731 63.5262 77.0731C63.3473 77.0731 63.1683 77.0731 62.9894 77.0776V62.627C73.9012 62.6448 83.8958 66.5729 91.649 73.0824C91.6803 73.1048 91.7116 73.1316 91.743 73.1629C95.6665 76.4691 99.013 80.4419 101.603 84.9024C101.639 84.956 101.67 85.0097 101.702 85.0679C105.487 91.6311 107.648 99.2456 107.648 107.366Z" fill="url(#paint9_linear_6020_592)"/>
<path d="M62.9089 62.6044V62.6268H48.9101V62.4344C48.9101 54.7125 46.0021 47.6751 41.2285 42.3423C41.1793 42.2841 41.1301 42.2304 41.0809 42.1767C37.7299 38.4903 33.4753 35.6404 28.6703 33.9761C28.5988 33.9448 28.5272 33.9224 28.4511 33.8956C25.4178 32.8711 22.1698 32.3119 18.7876 32.3119C18.5818 32.3119 18.376 32.3119 18.1702 32.3208V18.0312H22.0043C28.6569 18.5905 34.8935 20.6127 40.3964 23.7712C40.4948 23.8249 40.5887 23.8786 40.6827 23.9368C45.2684 26.6121 49.3352 30.0794 52.6995 34.1506C52.7666 34.2356 52.8337 34.3206 52.9053 34.4056C59.1598 42.0962 62.9089 51.9119 62.9089 62.6044Z" fill="url(#paint10_linear_6020_592)"/>
<path d="M62.9895 92.7227V107.173H62.9089C54.8202 107.173 47.228 105.026 40.6827 101.268C38.6963 100.131 36.8039 98.8429 35.0233 97.4203C32.6163 95.501 30.4152 93.3401 28.4556 90.9734C26.8808 89.0765 25.4581 87.0453 24.2144 84.9024C20.3982 78.3526 18.206 70.747 18.1747 62.627H33.3993C33.3993 66.0405 33.9719 69.3243 35.0233 72.38C36.3431 76.232 38.419 79.7306 41.0809 82.6967C41.7699 83.4663 42.4991 84.2044 43.2642 84.9024C46.0514 87.4301 49.3128 89.4478 52.9054 90.7989C56.0505 91.989 59.4462 92.6601 62.9895 92.7227Z" fill="url(#paint11_linear_6020_592)"/>
</g>
<defs>
<linearGradient id="paint0_linear_6020_592" x1="107.648" y1="18.0312" x2="44.2426" y2="64.0504" gradientUnits="userSpaceOnUse">
<stop stop-color="#C0D7FF"/>
<stop offset="1" stop-color="#3875EB"/>
</linearGradient>
<linearGradient id="paint1_linear_6020_592" x1="107.639" y1="61.2222" x2="107.6" y2="61.2228" gradientUnits="userSpaceOnUse">
<stop stop-color="#C0D7FF"/>
<stop offset="1" stop-color="#3875EB"/>
</linearGradient>
<linearGradient id="paint2_linear_6020_592" x1="107.612" y1="59.9961" x2="107.496" y2="60.0006" gradientUnits="userSpaceOnUse">
<stop stop-color="#C0D7FF"/>
<stop offset="1" stop-color="#3875EB"/>
</linearGradient>
<linearGradient id="paint3_linear_6020_592" x1="107.464" y1="58.3452" x2="107.387" y2="58.3509" gradientUnits="userSpaceOnUse">
<stop stop-color="#C0D7FF"/>
<stop offset="1" stop-color="#3875EB"/>
</linearGradient>
<linearGradient id="paint4_linear_6020_592" x1="107.433" y1="57.7368" x2="107.288" y2="57.7484" gradientUnits="userSpaceOnUse">
<stop stop-color="#C0D7FF"/>
<stop offset="1" stop-color="#3875EB"/>
</linearGradient>
<linearGradient id="paint5_linear_6020_592" x1="107.5" y1="58.6987" x2="107.423" y2="58.7032" gradientUnits="userSpaceOnUse">
<stop stop-color="#C0D7FF"/>
<stop offset="1" stop-color="#3875EB"/>
</linearGradient>
<linearGradient id="paint6_linear_6020_592" x1="107.115" y1="55.7593" x2="107.086" y2="55.7623" gradientUnits="userSpaceOnUse">
<stop stop-color="#C0D7FF"/>
<stop offset="1" stop-color="#3875EB"/>
</linearGradient>
<linearGradient id="paint7_linear_6020_592" x1="107.249" y1="55.8535" x2="106.962" y2="55.8835" gradientUnits="userSpaceOnUse">
<stop stop-color="#C0D7FF"/>
<stop offset="1" stop-color="#3875EB"/>
</linearGradient>
<linearGradient id="paint8_linear_6020_592" x1="107.648" y1="62.0498" x2="107.628" y2="62.05" gradientUnits="userSpaceOnUse">
<stop stop-color="#C0D7FF"/>
<stop offset="1" stop-color="#3875EB"/>
</linearGradient>
<linearGradient id="paint9_linear_6020_592" x1="107.648" y1="62.627" x2="43.9631" y2="108.554" gradientUnits="userSpaceOnUse">
<stop stop-color="#C0D7FF"/>
<stop offset="1" stop-color="#3875EB"/>
</linearGradient>
<linearGradient id="paint10_linear_6020_592" x1="62.9089" y1="18.0312" x2="-0.531427" y2="64.1591" gradientUnits="userSpaceOnUse">
<stop stop-color="#C0D7FF"/>
<stop offset="1" stop-color="#3875EB"/>
</linearGradient>
<linearGradient id="paint11_linear_6020_592" x1="62.9895" y1="62.627" x2="-0.435398" y2="108.873" gradientUnits="userSpaceOnUse">
<stop stop-color="#C0D7FF"/>
<stop offset="1" stop-color="#3875EB"/>
</linearGradient>
<clipPath id="clip0_6020_592">
<rect width="125" height="125" fill="white" transform="translate(0.408936 0.27002)"/>
</clipPath>
</defs>
</svg>
