<svg width="81" height="16" viewBox="0 0 81 16" fill="none" xmlns="http://www.w3.org/2000/svg">
<g clip-path="url(#clip0_6020_109)">
<path fill-rule="evenodd" clip-rule="evenodd" d="M10.3224 4.67412C9.66458 4.2346 8.89122 4 8.1001 4V0C9.68234 0 11.2291 0.469192 12.5447 1.34824C13.8603 2.22729 14.8856 3.47672 15.4911 4.93852C16.0966 6.40032 16.2551 8.00888 15.9464 9.56072C15.6377 11.1126 14.8758 12.538 13.7569 13.6568C12.6381 14.7757 11.2127 15.5376 9.66082 15.8463C8.10898 16.155 6.50042 15.9965 5.03862 15.391C3.57682 14.7855 2.32739 13.7602 1.44834 12.4446C0.56929 11.129 0.100098 9.58224 0.100098 8H4.1001C4.1001 8.79112 4.3347 9.56448 4.77422 10.2223C5.21374 10.8801 5.83846 11.3928 6.56938 11.6955C7.30026 11.9983 8.10454 12.0775 8.88046 11.9231C9.65638 11.7688 10.3691 11.3878 10.9285 10.8284C11.4879 10.269 11.8689 9.55628 12.0232 8.78036C12.1776 8.00444 12.0984 7.20016 11.7956 6.46928C11.4929 5.73836 10.9802 5.11364 10.3224 4.67412Z" fill="#C0D7FF"/>
<path fill-rule="evenodd" clip-rule="evenodd" d="M4.1001 2.11397e-06C4.1001 0.52529 3.99664 1.04543 3.79562 1.53074C3.5946 2.01604 3.29996 2.45699 2.92852 2.82843C2.55709 3.19987 2.11614 3.4945 1.63083 3.69552C1.14553 3.89654 0.625383 4 0.100098 4L0.100098 8C1.15067 8 2.19096 7.79308 3.16157 7.39104C4.13218 6.989 5.0141 6.39972 5.75694 5.65684C6.49982 4.914 7.0891 4.03208 7.49114 3.06147C7.89318 2.09086 8.1001 1.05057 8.1001 0L4.1001 2.11397e-06Z" fill="#C0D7FF"/>
<path d="M50.3477 5.78101H48.4069V11.9459H50.3477V5.78101Z" fill="#C0D7FF"/>
<path d="M48.6229 4.62664C48.8257 4.8296 49.0793 4.93108 49.3837 4.93108C49.6881 4.93108 49.9377 4.8296 50.1321 4.62664C50.3269 4.41524 50.4241 4.16152 50.4241 3.86554C50.4241 3.56111 50.3269 3.3074 50.1321 3.10445C49.9377 2.90148 49.6881 2.8 49.3837 2.8C49.0793 2.8 48.8257 2.90148 48.6229 3.10445C48.4281 3.3074 48.3309 3.56111 48.3309 3.86554C48.3309 4.16152 48.4281 4.41524 48.6229 4.62664Z" fill="#C0D7FF"/>
<path d="M20.5626 11.9459V2.99026H22.5542V10.1954H26.5246V11.9459H20.5626Z" fill="#C0D7FF"/>
<path fill-rule="evenodd" clip-rule="evenodd" d="M30.111 12.0854C29.4768 12.0854 28.9017 11.9459 28.3859 11.6668C27.8785 11.3793 27.4768 10.9903 27.1808 10.4998C26.8848 10.0093 26.7368 9.45963 26.7368 8.85075C26.7368 8.24187 26.8848 7.69643 27.1808 7.21439C27.4768 6.73235 27.8785 6.35179 28.3859 6.07275C28.8933 5.78519 29.4683 5.64143 30.111 5.64143C30.7537 5.64143 31.3288 5.78099 31.8362 6.06003C32.3436 6.33911 32.7453 6.72391 33.0413 7.21439C33.3373 7.69643 33.4853 8.24187 33.4853 8.85075C33.4853 9.45963 33.3373 10.0093 33.0413 10.4998C32.7453 10.9903 32.3436 11.3793 31.8362 11.6668C31.3288 11.9459 30.7537 12.0854 30.111 12.0854ZM30.111 10.3222C30.3901 10.3222 30.6353 10.263 30.8468 10.1446C31.0582 10.0178 31.2189 9.84443 31.3288 9.62455C31.4472 9.39623 31.5064 9.13827 31.5064 8.85075C31.5064 8.56323 31.4472 8.31375 31.3288 8.10235C31.2104 7.88247 31.0455 7.71335 30.8341 7.59495C30.6311 7.46807 30.3901 7.40467 30.111 7.40467C29.8404 7.40467 29.5994 7.46807 29.388 7.59495C29.1766 7.71335 29.0117 7.88247 28.8933 8.10235C28.7749 8.32223 28.7157 8.57591 28.7157 8.86343C28.7157 9.14251 28.7749 9.39623 28.8933 9.62455C29.0117 9.84443 29.1766 10.0178 29.388 10.1446C29.5994 10.263 29.8404 10.3222 30.111 10.3222Z" fill="#C0D7FF"/>
<path fill-rule="evenodd" clip-rule="evenodd" d="M35.0224 14.3561C35.5383 14.5928 36.1345 14.7112 36.811 14.7112C37.4706 14.7112 38.0584 14.5802 38.5742 14.318C39.0901 14.0558 39.496 13.6922 39.792 13.2271C40.088 12.762 40.2362 12.2123 40.2362 11.578V5.78099H38.3332V6.19519C38.1917 6.07607 38.031 5.97607 37.8512 5.89515C37.5214 5.73447 37.145 5.65411 36.7222 5.65411C36.1556 5.65411 35.6524 5.78943 35.2127 6.06003C34.7729 6.32219 34.4262 6.68583 34.1725 7.15095C33.9188 7.60763 33.792 8.12347 33.792 8.69855C33.792 9.26515 33.9188 9.78099 34.1725 10.2461C34.4262 10.7112 34.7729 11.0791 35.2127 11.3497C35.6524 11.6203 36.1556 11.7556 36.7222 11.7556C37.1366 11.7556 37.5129 11.6753 37.8512 11.5146C38.015 11.4368 38.163 11.3451 38.2952 11.2394V11.6288C38.2952 12.0601 38.1556 12.3941 37.8766 12.6309C37.606 12.8677 37.2296 12.9861 36.7476 12.9861C36.3586 12.9861 36.0246 12.9184 35.7455 12.7831C35.4749 12.6478 35.2296 12.4491 35.0097 12.1869L33.8174 13.3793C34.1133 13.8022 34.515 14.1278 35.0224 14.3561ZM37.7878 9.85287C37.5932 9.97127 37.3607 10.0305 37.0901 10.0305C36.8195 10.0305 36.5827 9.97127 36.3797 9.85287C36.1852 9.73447 36.033 9.57379 35.9231 9.37083C35.8131 9.15943 35.7582 8.93531 35.7582 8.69855C35.7582 8.44483 35.8131 8.21651 35.9231 8.01355C36.033 7.81059 36.1894 7.64991 36.3924 7.53151C36.5954 7.41311 36.8279 7.35391 37.0901 7.35391C37.3607 7.35391 37.5932 7.41311 37.7878 7.53151C37.9907 7.64991 38.1429 7.81059 38.2444 8.01355C38.3544 8.21651 38.4093 8.44483 38.4093 8.69855C38.4093 8.95223 38.3544 9.18055 38.2444 9.38351C38.1429 9.57803 37.9907 9.73447 37.7878 9.85287Z" fill="#C0D7FF"/>
<path fill-rule="evenodd" clip-rule="evenodd" d="M44.3204 12.0854C43.686 12.0854 43.1108 11.9459 42.5952 11.6668C42.0876 11.3793 41.686 10.9903 41.39 10.4998C41.094 10.0093 40.946 9.45963 40.946 8.85075C40.946 8.24187 41.094 7.69643 41.39 7.21439C41.686 6.73235 42.0876 6.35179 42.5952 6.07275C43.1024 5.78519 43.6776 5.64143 44.3204 5.64143C44.9628 5.64143 45.538 5.78099 46.0452 6.06003C46.5528 6.33911 46.9544 6.72391 47.2504 7.21439C47.5464 7.69643 47.6944 8.24187 47.6944 8.85075C47.6944 9.45963 47.5464 10.0093 47.2504 10.4998C46.9544 10.9903 46.5528 11.3793 46.0452 11.6668C45.538 11.9459 44.9628 12.0854 44.3204 12.0854ZM44.3204 10.3222C44.5992 10.3222 44.8444 10.263 45.056 10.1446C45.2672 10.0178 45.428 9.84443 45.538 9.62455C45.6564 9.39623 45.7156 9.13827 45.7156 8.85075C45.7156 8.56323 45.6564 8.31375 45.538 8.10235C45.4196 7.88247 45.2548 7.71335 45.0432 7.59495C44.8404 7.46807 44.5992 7.40467 44.3204 7.40467C44.0496 7.40467 43.8084 7.46807 43.5972 7.59495C43.3856 7.71335 43.2208 7.88247 43.1024 8.10235C42.984 8.32223 42.9248 8.57591 42.9248 8.86343C42.9248 9.14251 42.984 9.39623 43.1024 9.62455C43.2208 9.84443 43.3856 10.0178 43.5972 10.1446C43.8084 10.263 44.0496 10.3222 44.3204 10.3222Z" fill="#C0D7FF"/>
<path fill-rule="evenodd" clip-rule="evenodd" d="M55.0125 12.0728C54.5985 12.0728 54.2177 11.9924 53.8709 11.8318C53.6885 11.7472 53.5237 11.6462 53.3765 11.5289V14.5464H51.4609V5.78099H53.4017V6.20647C53.5425 6.09131 53.6989 5.99175 53.8709 5.90783C54.2177 5.73867 54.5985 5.65411 55.0125 5.65411C55.5961 5.65411 56.1121 5.79367 56.5601 6.07275C57.0169 6.35179 57.3721 6.73235 57.6257 7.21439C57.8881 7.69643 58.0189 8.24611 58.0189 8.86343C58.0189 9.48079 57.8881 10.0305 57.6257 10.5125C57.3721 10.9946 57.0169 11.3751 56.5601 11.6542C56.1121 11.9332 55.5961 12.0728 55.0125 12.0728ZM54.6577 10.3222C54.9365 10.3222 55.1777 10.2588 55.3805 10.132C55.5921 10.0051 55.7569 9.83171 55.8753 9.61187C55.9937 9.39199 56.0529 9.14251 56.0529 8.86343C56.0529 8.57591 55.9937 8.32223 55.8753 8.10235C55.7569 7.88247 55.5921 7.71335 55.3805 7.59495C55.1777 7.46807 54.9409 7.40467 54.6701 7.40467C54.3997 7.40467 54.1585 7.46807 53.9473 7.59495C53.7441 7.71335 53.5837 7.88247 53.4653 8.10235C53.3469 8.32223 53.2877 8.57591 53.2877 8.86343C53.2877 9.14251 53.3425 9.39199 53.4525 9.61187C53.5709 9.83171 53.7357 10.0051 53.9473 10.132C54.1585 10.2588 54.3953 10.3222 54.6577 10.3222Z" fill="#C0D7FF"/>
<path d="M59.9185 11.9586C60.2737 12.0516 60.6329 12.0981 60.9965 12.0981C61.7661 12.0981 62.3749 11.9206 62.8233 11.5654C63.2797 11.2102 63.5081 10.7324 63.5081 10.132C63.5081 9.74295 63.4365 9.43003 63.2925 9.19327C63.1489 8.94803 62.9629 8.75351 62.7345 8.60975C62.5061 8.46599 62.2649 8.35179 62.0113 8.26723C61.7577 8.18267 61.5165 8.11079 61.2885 8.05159C61.0601 7.99239 60.8741 7.92475 60.7301 7.84863C60.5865 7.77251 60.5145 7.67103 60.5145 7.54419C60.5145 7.42579 60.5697 7.33699 60.6793 7.27779C60.7893 7.21015 60.9541 7.17635 61.1741 7.17635C61.4025 7.17635 61.6349 7.22283 61.8717 7.31587C62.1169 7.40887 62.3369 7.56959 62.5313 7.79791L63.6349 6.68163C63.3561 6.32643 62.9925 6.06003 62.5441 5.88247C62.1045 5.69643 61.6225 5.60339 61.0981 5.60339C60.5993 5.60339 60.1637 5.68795 59.7917 5.85707C59.4193 6.02623 59.1317 6.25879 58.9289 6.55475C58.7261 6.84227 58.6245 7.18479 58.6245 7.58227C58.6245 7.95435 58.6965 8.26303 58.8401 8.50827C58.9837 8.74503 59.1701 8.93111 59.3981 9.06639C59.6265 9.20171 59.8677 9.30743 60.1213 9.38351C60.3749 9.45963 60.6161 9.53151 60.8445 9.59919C61.0725 9.65839 61.2589 9.73027 61.4025 9.81483C61.5549 9.89095 61.6309 10.0051 61.6309 10.1573C61.6309 10.2757 61.5673 10.3687 61.4405 10.4364C61.3221 10.504 61.1489 10.5379 60.9205 10.5379C60.5905 10.5379 60.2861 10.4787 60.0073 10.3603C59.7281 10.2334 59.4869 10.0601 59.2841 9.84019L58.1805 10.9565C58.3921 11.1848 58.6457 11.3878 58.9417 11.5654C59.2461 11.7345 59.5717 11.8656 59.9185 11.9586Z" fill="#C0D7FF"/>
<path d="M67.0473 12.0854C66.4809 12.0854 65.9777 11.9713 65.5381 11.743C65.1065 11.5062 64.7685 11.1848 64.5233 10.7789C64.2777 10.3645 64.1553 9.89097 64.1553 9.35817V5.78101H66.0961V9.33281C66.0961 9.54421 66.1297 9.72605 66.1977 9.87825C66.2737 10.0305 66.3837 10.1489 66.5273 10.2334C66.6713 10.318 66.8445 10.3603 67.0473 10.3603C67.3349 10.3603 67.5633 10.2715 67.7325 10.0939C67.9017 9.90785 67.9861 9.65417 67.9861 9.33281V5.78101H69.9269V9.34549C69.9269 9.88673 69.8045 10.3645 69.5589 10.7789C69.3137 11.1848 68.9757 11.5062 68.5441 11.743C68.1129 11.9713 67.6141 12.0854 67.0473 12.0854Z" fill="#C0D7FF"/>
<path d="M72.8325 5.78099H70.8917V11.9459H72.8325V8.34335C72.8325 8.13195 72.8749 7.95435 72.9593 7.81059C73.0525 7.66683 73.1753 7.55687 73.3273 7.48079C73.4797 7.39619 73.6529 7.35391 73.8473 7.35391C74.1265 7.35391 74.3589 7.44271 74.5449 7.62031C74.7397 7.78943 74.8369 8.03047 74.8369 8.34335V11.9459H76.7777V8.34335C76.7777 8.13195 76.8201 7.95435 76.9045 7.81059C76.9977 7.66683 77.1201 7.55687 77.2725 7.48079C77.4245 7.39619 77.5981 7.35391 77.7925 7.35391C78.0717 7.35391 78.3041 7.44271 78.4901 7.62031C78.6845 7.78943 78.7817 8.03047 78.7817 8.34335V11.9459H80.7229V8.12771C80.7229 7.61187 80.6129 7.17211 80.3929 6.80847C80.1813 6.43635 79.8897 6.15307 79.5177 5.95859C79.1541 5.75559 78.7353 5.65411 78.2617 5.65411C77.7797 5.65411 77.3441 5.75983 76.9553 5.97127C76.7025 6.10595 76.4817 6.27979 76.2925 6.49275C76.1161 6.26999 75.9017 6.08771 75.6485 5.94587C75.3105 5.75139 74.9257 5.65411 74.4945 5.65411C74.0377 5.65411 73.6277 5.75139 73.2641 5.94587C73.1057 6.02679 72.9621 6.12371 72.8325 6.23663V5.78099Z" fill="#C0D7FF"/>
</g>
<defs>
<clipPath id="clip0_6020_109">
<rect width="80.8" height="16" fill="white" transform="translate(0.100098)"/>
</clipPath>
</defs>
</svg>
