<svg width="38" height="39" viewBox="0 0 38 39" fill="none" xmlns="http://www.w3.org/2000/svg">
<rect y="0.27002" width="38" height="38" rx="8" fill="url(#paint0_linear_6020_641)"/>
<path fill-rule="evenodd" clip-rule="evenodd" d="M20.6425 31.77C21.35 31.77 21.9763 31.7725 22.5738 31.5675C23.17 31.3625 23.665 30.9763 24.2225 30.5425L24.335 30.4538L29.0875 26.7575L29.25 26.6325C30.035 26.0238 30.7337 25.4825 31.1187 24.695C31.5037 23.9075 31.5025 23.0238 31.5 22.03V12.9375C31.5 11.83 31.5 10.875 31.3975 10.11C31.2875 9.29127 31.0388 8.50502 30.4013 7.86877C29.7638 7.23127 28.9787 6.98252 28.16 6.87252C27.395 6.77002 26.44 6.77002 25.3325 6.77002H12.6675C11.56 6.77002 10.605 6.77002 9.84 6.87252C9.02125 6.98252 8.235 7.23127 7.59875 7.86877C6.96125 8.50627 6.7125 9.29127 6.6025 10.11C6.5 10.875 6.5 11.83 6.5 12.9375V25.6025C6.5 26.71 6.5 27.665 6.6025 28.43C6.7125 29.2488 6.96125 30.035 7.59875 30.6713C8.23625 31.3088 9.02125 31.5575 9.84 31.6675C10.605 31.77 11.56 31.77 12.6675 31.77H20.6425ZM26.5 19.27C26.5 18.9385 26.3683 18.6206 26.1339 18.3861C25.8995 18.1517 25.5815 18.02 25.25 18.02H19.41C18.4938 18.02 17.75 18.7638 17.75 19.68V25.52C17.75 25.8515 17.8817 26.1695 18.1161 26.4039C18.3505 26.6383 18.6685 26.77 19 26.77C19.3315 26.77 19.6495 26.6383 19.8839 26.4039C20.1183 26.1695 20.25 25.8515 20.25 25.52V20.52H25.25C25.5815 20.52 25.8995 20.3883 26.1339 20.1539C26.3683 19.9195 26.5 19.6015 26.5 19.27Z" fill="black"/>
<defs>
<linearGradient id="paint0_linear_6020_641" x1="38" y1="0.27002" x2="-16.004" y2="39.411" gradientUnits="userSpaceOnUse">
<stop stop-color="#C0D7FF"/>
<stop offset="1" stop-color="#3875EB"/>
</linearGradient>
</defs>
</svg>
