<svg width="24" height="24" viewBox="0 0 24 24" fill="none" xmlns="http://www.w3.org/2000/svg">
<path d="M19.3399 14.4902L18.3399 12.8302C18.1299 12.4602 17.9399 11.7602 17.9399 11.3502V8.82016C17.9387 7.70419 17.6216 6.61137 17.0252 5.66813C16.4288 4.72489 15.5776 3.96978 14.5699 3.49016C14.3128 3.0335 13.9376 2.6543 13.4838 2.3922C13.0299 2.13009 12.514 1.99469 11.9899 2.00016C10.8999 2.00016 9.91994 2.59016 9.39994 3.52016C7.44994 4.49016 6.09994 6.50016 6.09994 8.82016V11.3502C6.09994 11.7602 5.90994 12.4602 5.69994 12.8202L4.68994 14.4902C4.28994 15.1602 4.19994 15.9002 4.44994 16.5802C4.68994 17.2502 5.25994 17.7702 5.99994 18.0202C7.93994 18.6802 9.97994 19.0002 12.0199 19.0002C14.0599 19.0002 16.0999 18.6802 18.0399 18.0302C18.7399 17.8002 19.2799 17.2702 19.5399 16.5802C19.7999 15.8902 19.7299 15.1302 19.3399 14.4902Z" fill="#BDBDBD"/>
<path d="M14.8302 20.01C14.6199 20.5922 14.2355 21.0954 13.7291 21.4515C13.2228 21.8075 12.6191 21.999 12.0002 22C11.2102 22 10.4302 21.68 9.88018 21.11C9.56018 20.81 9.32018 20.41 9.18018 20C9.31018 20.02 9.44018 20.03 9.58018 20.05C9.81018 20.08 10.0502 20.11 10.2902 20.13C10.8602 20.18 11.4402 20.21 12.0202 20.21C12.5902 20.21 13.1602 20.18 13.7202 20.13C13.9302 20.11 14.1402 20.1 14.3402 20.07L14.8302 20.01Z" fill="#BDBDBD"/>
<circle cx="17" cy="6" r="5" fill="#EB5757" stroke="white" stroke-width="2"/>
</svg>
