<svg width="24" height="25" viewBox="0 0 24 25" fill="none" xmlns="http://www.w3.org/2000/svg">
<path fill-rule="evenodd" clip-rule="evenodd" d="M18.25 7.5C18.25 9.57107 16.5711 11.25 14.5 11.25C12.4289 11.25 10.75 9.57107 10.75 7.5C10.75 5.42893 12.4289 3.75 14.5 3.75C16.5711 3.75 18.25 5.42893 18.25 7.5ZM14.5 9.75C15.7426 9.75 16.75 8.74264 16.75 7.5C16.75 6.25736 15.7426 5.25 14.5 5.25C13.2574 5.25 12.25 6.25736 12.25 7.5C12.25 8.74264 13.2574 9.75 14.5 9.75Z" fill="#0D1217"/>
<path fill-rule="evenodd" clip-rule="evenodd" d="M5.75 17.5C5.75 19.5711 7.42893 21.25 9.5 21.25C11.5711 21.25 13.25 19.5711 13.25 17.5C13.25 15.4289 11.5711 13.75 9.5 13.75C7.42893 13.75 5.75 15.4289 5.75 17.5ZM9.5 19.75C8.25736 19.75 7.25 18.7426 7.25 17.5C7.25 16.2574 8.25736 15.25 9.5 15.25C10.7426 15.25 11.75 16.2574 11.75 17.5C11.75 18.7426 10.7426 19.75 9.5 19.75Z" fill="#0D1217"/>
<path d="M14.25 17.4585C14.25 17.0443 14.5858 16.7085 15 16.7085H22C22.4142 16.7085 22.75 17.0443 22.75 17.4585C22.75 17.8727 22.4142 18.2085 22 18.2085H15C14.5858 18.2085 14.25 17.8727 14.25 17.4585Z" fill="#0D1217"/>
<path d="M9 6.70852C9.41421 6.70852 9.75 7.04431 9.75 7.45852C9.75 7.87273 9.41421 8.20852 9 8.20852L2 8.20852C1.58579 8.20852 1.25 7.87273 1.25 7.45852C1.25 7.04431 1.58579 6.70852 2 6.70852L9 6.70852Z" fill="#0D1217"/>
<path d="M1.25 17.4585C1.25 17.0443 1.58579 16.7085 2 16.7085H4C4.41421 16.7085 4.75 17.0443 4.75 17.4585C4.75 17.8727 4.41421 18.2085 4 18.2085H2C1.58579 18.2085 1.25 17.8727 1.25 17.4585Z" fill="#0D1217"/>
<path d="M22 6.70852C22.4142 6.70852 22.75 7.04431 22.75 7.45852C22.75 7.87273 22.4142 8.20852 22 8.20852H20C19.5858 8.20852 19.25 7.87273 19.25 7.45852C19.25 7.04431 19.5858 6.70852 20 6.70852H22Z" fill="#0D1217"/>
</svg>
