<svg width="33" height="32" viewBox="0 0 33 32" fill="none" xmlns="http://www.w3.org/2000/svg">
<rect x="1.18048" y="0.5" width="31" height="31" rx="4.5" stroke="#89ACF1"/>
<path d="M6.68855 11.9031H9.71277V24H6.68855C6.13182 24 5.68048 23.5487 5.68048 22.9919V12.9112C5.68048 12.3544 6.13182 11.9031 6.68855 11.9031ZM12.0242 10.5998L18.4763 4.14764C18.6537 3.97026 18.9345 3.95032 19.1351 4.10081L19.9946 4.74541C20.4832 5.11187 20.7034 5.73628 20.5527 6.32815L19.3901 10.895H25.8419C26.9554 10.895 27.8581 11.7977 27.8581 12.9112V15.0325C27.8581 15.2959 27.8065 15.5567 27.7063 15.8001L24.5869 23.3757C24.4313 23.7534 24.0632 24 23.6547 24H12.737C12.1802 24 11.7289 23.5487 11.7289 22.9919V11.3126C11.7289 11.0452 11.8351 10.7888 12.0242 10.5998Z" fill="url(#paint0_linear_6020_218)"/>
<defs>
<linearGradient id="paint0_linear_6020_218" x1="27.8581" y1="4" x2="-1.35009" y2="27.4744" gradientUnits="userSpaceOnUse">
<stop stop-color="#C0D7FF"/>
<stop offset="1" stop-color="#3875EB"/>
</linearGradient>
</defs>
</svg>
