<svg width="20" height="21" viewBox="0 0 20 21" fill="none" xmlns="http://www.w3.org/2000/svg">
<path d="M18.3333 5.10353C17.7069 5.37527 17.0445 5.55491 16.3666 5.63686C17.0818 5.20963 17.6177 4.53751 17.875 3.74519C17.2029 4.14525 16.4673 4.42711 15.7 4.57853C15.1871 4.02234 14.5041 3.65211 13.7581 3.5259C13.0122 3.3997 12.2454 3.52466 11.5781 3.88119C10.9108 4.23771 10.3807 4.80564 10.071 5.49589C9.76125 6.18615 9.68937 6.95969 9.86663 7.69519C8.50781 7.62647 7.17866 7.27266 5.9655 6.65675C4.75235 6.04084 3.68233 5.17661 2.82496 4.12019C2.52424 4.64533 2.36623 5.24005 2.36663 5.84519C2.36556 6.40718 2.50347 6.96071 2.76809 7.4565C3.0327 7.95229 3.41581 8.37495 3.88329 8.68686C3.33994 8.67208 2.8082 8.52628 2.33329 8.26186V8.30353C2.33737 9.09094 2.61329 9.85277 3.11439 10.4602C3.61549 11.0676 4.31101 11.4832 5.08329 11.6369C4.78601 11.7273 4.47736 11.775 4.16663 11.7785C3.95153 11.776 3.73698 11.7565 3.52496 11.7202C3.74488 12.3975 4.17048 12.9895 4.74252 13.4137C5.31457 13.8378 6.00461 14.0732 6.71663 14.0869C5.5143 15.0329 4.02986 15.5492 2.49996 15.5535C2.22141 15.5544 1.94307 15.5377 1.66663 15.5035C3.22865 16.5121 5.04897 17.0475 6.90829 17.0452C8.19137 17.0585 9.46424 16.816 10.6526 16.3319C11.8409 15.8478 12.9208 15.1318 13.8293 14.2256C14.7378 13.3195 15.4566 12.2414 15.9438 11.0543C16.4309 9.86721 16.6767 8.59497 16.6666 7.31186C16.6666 7.17019 16.6666 7.02019 16.6666 6.87019C17.3205 6.38254 17.8845 5.78472 18.3333 5.10353V5.10353Z" fill="#0D0D0D"/>
</svg>
