<svg width="20" height="21" viewBox="0 0 20 21" fill="none" xmlns="http://www.w3.org/2000/svg">
<path d="M15.1166 18.5166C14.3833 18.7333 13.5166 18.8333 12.5 18.8333H7.49997C6.4833 18.8333 5.61663 18.7333 4.8833 18.5166C5.06663 16.3499 7.29163 14.6416 9.99997 14.6416C12.7083 14.6416 14.9333 16.3499 15.1166 18.5166V18.5166Z" stroke="#828282" stroke-width="1.5" stroke-linecap="round" stroke-linejoin="round"/>
<path d="M12.4998 2.1665H7.49984C3.33317 2.1665 1.6665 3.83317 1.6665 7.99984V12.9998C1.6665 16.1498 2.6165 17.8748 4.88317 18.5165C5.0665 16.3498 7.2915 14.6415 9.99984 14.6415C12.7082 14.6415 14.9332 16.3498 15.1165 18.5165C17.3832 17.8748 18.3332 16.1498 18.3332 12.9998V7.99984C18.3332 3.83317 16.6665 2.1665 12.4998 2.1665ZM9.99984 12.3082C8.34984 12.3082 7.0165 10.9665 7.0165 9.3165C7.0165 7.6665 8.34984 6.33317 9.99984 6.33317C11.6498 6.33317 12.9832 7.6665 12.9832 9.3165C12.9832 10.9665 11.6498 12.3082 9.99984 12.3082Z" stroke="#828282" stroke-width="1.5" stroke-linecap="round" stroke-linejoin="round"/>
<path d="M12.9833 9.31634C12.9833 10.9663 11.6499 12.308 9.99993 12.308C8.34993 12.308 7.0166 10.9663 7.0166 9.31634C7.0166 7.66634 8.34993 6.33301 9.99993 6.33301C11.6499 6.33301 12.9833 7.66634 12.9833 9.31634Z" stroke="#828282" stroke-width="1.5" stroke-linecap="round" stroke-linejoin="round"/>
</svg>
